<?xml version="1.0" encoding="UTF-8" standalone="no"?>
<svg xmlns="http://www.w3.org/2000/svg" xmlns:xlink="http://www.w3.org/1999/xlink" width="190" height="190" version="1.0">
  <defs>
    <clipPath id="a" clipPathUnits="userSpaceOnUse">
      <path fill="none" stroke="#be6021" stroke-dashoffset="7.8" stroke-linecap="round" stroke-linejoin="round" stroke-width="1.82821143" d="M416.30705 570.65044c-2.55833 2.97886-25.78454-17.50164-25.78454-17.50164s-23.26022 18.90159-25.52385 16.26589c-2.31823-2.69931 5.71521-35.23928 5.71521-35.23928s-21.53004-20.47987-20.60423-24.50294c.91601-3.98057 29.31673-4.27743 29.31673-4.27743s9.65362-31.40954 12.78974-31.40954c3.18957 0 12.40352 32.59569 12.40352 32.59569s27.65373 1.37534 28.50873 5.09078c.86538 3.76046-21.65094 24.42266-21.65094 24.42266s7.4427 31.51322 4.82963 34.55581z" overflow="visible" style="marker:none"/>
    </clipPath>
  </defs>
  <g id="b" fill="#a2a9b1" fill-opacity="1" stroke="#a2a9b1" stroke-dashoffset="7.8" stroke-linecap="round" stroke-linejoin="round" stroke-opacity="1" display="inline">
    <path stroke-width="2.01640272" d="M420.45826 562.06471c-3.01817 3.01089-30.41911-17.68983-30.41911-17.68983s-27.44108 19.10483-30.11157 16.44079c-2.73491-2.72832 6.74247-35.6182 6.74247-35.6182s-25.39989-20.70009-24.30769-24.76641c1.08068-4.02338 34.58619-4.32343 34.58619-4.32343s11.38879-31.74728 15.08859-31.74728c3.76288 0 14.63297 32.94619 14.63297 32.94619s32.62426 1.39014 33.63295 5.14551c1.02092 3.8009-25.54252 24.68528-25.54252 24.68528s8.78045 31.85208 5.69772 34.92738z" display="inline" overflow="visible" style="marker:none" transform="translate(-340.93852 -462.9707476)"/>
    <path stroke-width="2.01640272" d="M420.45826 562.06471c-3.01817 3.01089-30.41911-17.68983-30.41911-17.68983s-27.44108 19.10484-30.11157 16.4408c-2.73491-2.72833 6.74247-35.6182 6.74247-35.6182s-25.39989-20.70009-24.30769-24.76642c1.08068-4.02337 34.58619-4.32342 34.58619-4.32342s11.38879-31.74729 15.08859-31.74729c3.76288 0 14.63297 32.94619 14.63297 32.94619s32.62427 1.39014 33.63295 5.14552c1.02092 3.8009-25.54251 24.68528-25.54251 24.68528s8.78044 31.85207 5.69771 34.92737z" display="inline" overflow="visible" style="marker:none" transform="translate(-340.93852 -462.9707476)"/>
    <path stroke-width="2" d="M429.28572 553.88007a45.44643 33.660713 0 0 1-45.44643 33.66071 45.44643 33.660713 0 0 1-45.44643-33.66071 45.44643 33.660713 0 0 1 45.44643-33.66072 45.44643 33.660713 0 0 1 45.44643 33.66072z" clip-path="url(#a)" display="inline" overflow="visible" style="marker:none" transform="matrix(1.17974 0 0 1.01075 -411.61526 -477.6926076)"/>
    <path stroke-width="1.99637663" d="M420.45826 562.06471c-3.01817 3.01089-30.41911-17.68983-30.41911-17.68983s-27.44108 19.10484-30.11157 16.4408c-2.73491-2.72833 6.74247-35.6182 6.74247-35.6182s-25.39989-20.70009-24.30769-24.76642c1.08068-4.02337 34.58619-4.32342 34.58619-4.32342s11.38879-31.74729 15.08859-31.74729c3.76288 0 14.63297 32.94619 14.63297 32.94619s32.62427 1.39014 33.63295 5.14552c1.02092 3.8009-25.54252 24.68528-25.54252 24.68528s8.78045 31.85207 5.69772 34.92737z" display="inline" overflow="visible" style="marker:none" transform="translate(-340.93852 -462.9707476)"/>
  </g>
  <use xlink:href="#b" width="190" height="190" transform="matrix(.5 0 0 .5 110.40279 53.723491)"/>
  <use xlink:href="#b" width="190" height="190" transform="matrix(.5 0 0 .5 110.40279 139.72349)"/>
  <use xlink:href="#b" width="190" height="190" transform="matrix(.5 0 0 .5 79.786625 95.72349)"/>
  <use xlink:href="#b" width="190" height="190" transform="matrix(.5 0 0 .5 139.78662 95.72349)"/>
</svg>